<?xml version="1.0" encoding="UTF-8" standalone="no"?><!DOCTYPE svg PUBLIC "-//W3C//DTD SVG 1.1//EN" "http://www.w3.org/Graphics/SVG/1.1/DTD/svg11.dtd"><svg width="100%" height="100%" viewBox="0 0 627 574" version="1.1" xmlns="http://www.w3.org/2000/svg" xmlns:xlink="http://www.w3.org/1999/xlink" xml:space="preserve" xmlns:serif="http://www.serif.com/" style="fill-rule:evenodd;clip-rule:evenodd;stroke-linejoin:round;stroke-miterlimit:2;"><path d="M313.333,20c-162,0 -293.333,107.453 -293.333,240c0,71.48 38.24,135.613 98.827,179.587l-45.494,113.746l137.107,-68.546c33.352,10.149 68.031,15.277 102.893,15.213c162,0 293.334,-107.453 293.334,-240c-0,-132.547 -131.334,-240 -293.334,-240Z" style="fill:#c1f7fd;fill-rule:nonzero;"/><path d="M73.333,573.333c-0.001,0 -0.002,0 -0.003,0c-10.972,0 -20,-9.028 -20,-20c-0,-2.544 0.485,-5.064 1.43,-7.426l39.907,-99.68c-58.232,-44.389 -93.121,-113.022 -94.667,-186.227c0,-143.36 140.56,-260 313.333,-260c172.774,0 313.334,116.64 313.334,260c-0,143.36 -140.56,260 -313.334,260c-34.137,0.059 -68.119,-4.589 -100.986,-13.813l-130.067,65.04c-2.778,1.387 -5.841,2.108 -8.947,2.106Zm240,-533.333c-150.666,0 -273.333,98.667 -273.333,220c0,62.08 33.013,121.64 90.573,163.387c7.397,5.363 10.223,15.145 6.827,23.626l-25.973,64.907l90.066,-45.027c4.594,-2.3 9.902,-2.744 14.814,-1.24c31.448,9.581 64.151,14.417 97.026,14.347c150.667,0 273.334,-98.667 273.334,-220c-0,-121.333 -122.667,-220 -273.334,-220Z" style="fill:#7bcdd1;fill-rule:nonzero;"/><path d="M20,280c-10.972,0 -20,-9.028 -20,-20c0,-143.36 140.56,-260 313.333,-260c10.972,0 20,9.028 20,20c0,10.972 -9.028,20 -20,20c-150.666,0 -273.333,98.667 -273.333,220c0,10.972 -9.028,20 -20,20Z" style="fill:#bec6f4;fill-rule:nonzero;"/><circle cx="166.667" cy="260" r="40" style="fill:#c1f7fd;"/><path d="M166.667,320c-32.915,0 -60,-27.085 -60,-60c-0,-32.915 27.085,-60 60,-60c32.915,0 60,27.085 60,60c-0.037,32.901 -27.099,59.964 -60,60Zm-0,-80c-10.972,0 -20,9.028 -20,20c-0,10.972 9.028,20 20,20c10.971,0 20,-9.028 20,-20c-0,-10.972 -9.029,-20 -20,-20Z" style="fill:#bec6f4;fill-rule:nonzero;"/><circle cx="460" cy="260" r="40" style="fill:#c1f7fd;"/><path d="M460,320c-32.915,0 -60,-27.085 -60,-60c0,-32.915 27.085,-60 60,-60c32.915,0 60,27.085 60,60c-0.036,32.901 -27.099,59.964 -60,60Zm0,-80c-10.972,0 -20,9.028 -20,20c0,10.972 9.028,20 20,20c10.972,0 20,-9.028 20,-20c0,-10.972 -9.028,-20 -20,-20Z" style="fill:#bec6f4;fill-rule:nonzero;"/><circle cx="313.333" cy="260" r="40" style="fill:#c1f7fd;"/><path d="M313.333,320c-32.915,0 -60,-27.085 -60,-60c0,-32.915 27.085,-60 60,-60c32.915,0 60,27.085 60,60c-0.036,32.901 -27.098,59.964 -60,60Zm0,-80c-10.971,0 -20,9.028 -20,20c0,10.972 9.029,20 20,20c10.972,0 20,-9.028 20,-20c0,-10.972 -9.028,-20 -20,-20Z" style="fill:#bec6f4;fill-rule:nonzero;"/></svg>